<svg width="62" height="62" viewBox="0 0 62 62" fill="none" xmlns="http://www.w3.org/2000/svg">
<circle cx="31" cy="31" r="31" fill="white"/>
<path d="M30.0332 24.9277C30.1035 26.0762 29.9336 27.125 29.5234 28.0742C29.125 29.0117 28.5566 29.8203 27.8184 30.5C27.0801 31.1797 26.207 31.707 25.1992 32.082C24.2031 32.457 23.1484 32.6387 22.0352 32.627C22.9023 32.6035 23.7109 32.7266 24.4609 32.9961C25.2227 33.2656 25.8906 33.6289 26.4648 34.0859C27.0391 34.543 27.4961 35.0586 27.8359 35.6328C28.1875 36.207 28.3809 36.7871 28.416 37.373C28.4746 38.3691 28.3516 39.2246 28.0469 39.9395C27.7422 40.6543 27.3086 41.2578 26.7461 41.75C26.1836 42.2422 25.5215 42.6406 24.7598 42.9453C24.0098 43.2383 23.2129 43.4668 22.3691 43.6309C21.5371 43.7949 20.6934 43.9062 19.8379 43.9648C18.9824 44.0234 18.1797 44.0586 17.4297 44.0703C15.9297 44.0938 14.5703 44.1055 13.3516 44.1055C12.1445 44.1055 11.1016 44.0996 10.2227 44.0879C9.19141 44.0762 8.27148 44.0586 7.46289 44.0352C7.42773 42.9922 7.39258 41.9668 7.35742 40.959C7.3457 40.5254 7.32812 40.0801 7.30469 39.623C7.29297 39.1543 7.28125 38.6914 7.26953 38.2344C7.25781 37.7773 7.24609 37.3379 7.23438 36.916C7.22266 36.4824 7.21094 36.084 7.19922 35.7207C7.17578 35.0527 7.14648 34.3027 7.11133 33.4707C7.07617 32.6387 7.04102 31.7715 7.00586 30.8691C6.9707 29.9551 6.93555 29.0352 6.90039 28.1094C6.86523 27.1719 6.83008 26.2695 6.79492 25.4023C6.71289 23.3633 6.63086 21.2715 6.54883 19.127C7.29883 19.0215 8.23633 18.916 9.36133 18.8105C10.3223 18.7168 11.5352 18.623 13 18.5293C14.4648 18.4238 16.2168 18.3359 18.2559 18.2656C18.959 18.2422 19.7324 18.2656 20.5762 18.3359C21.4199 18.3945 22.2637 18.5176 23.1074 18.7051C23.9629 18.8809 24.7891 19.1328 25.5859 19.4609C26.3945 19.7891 27.1152 20.2051 27.748 20.709C28.3926 21.2129 28.9199 21.8164 29.3301 22.5195C29.7402 23.2109 29.9746 24.0137 30.0332 24.9277ZM25.2695 25.7539C25.2109 24.9453 25.041 24.2363 24.7598 23.627C24.4902 23.0176 24.1328 22.4961 23.6875 22.0625C23.2422 21.6172 22.7266 21.2539 22.1406 20.9727C21.5547 20.6914 20.9336 20.4746 20.2773 20.3223C19.6211 20.1582 18.9414 20.0527 18.2383 20.0059C17.5352 19.9473 16.8438 19.9297 16.1641 19.9531C15.9297 19.9648 15.5488 19.9883 15.0215 20.0234C14.4941 20.0586 13.9492 20.0996 13.3867 20.1465C12.7422 20.1934 12.0391 20.2461 11.2773 20.3047L11.7695 32.1523C12.2266 32.1172 12.7422 32.082 13.3164 32.0469C13.8086 32.0234 14.4004 31.9941 15.0918 31.959C15.7832 31.9238 16.5508 31.8945 17.3945 31.8711C18.3789 31.8359 19.3516 31.7188 20.3125 31.5195C21.2852 31.3203 22.1523 30.9922 22.9141 30.5352C23.6758 30.0781 24.2734 29.4629 24.707 28.6895C25.1523 27.916 25.3398 26.9375 25.2695 25.7539ZM23.582 37.6719C23.5234 36.8281 23.2773 36.1484 22.8438 35.6328C22.4219 35.1055 21.877 34.7012 21.209 34.4199C20.5527 34.1387 19.8086 33.9512 18.9766 33.8574C18.1562 33.7637 17.3184 33.7227 16.4629 33.7344C15.6191 33.7344 14.7988 33.7695 14.002 33.8398C13.2051 33.8984 12.502 33.9395 11.8926 33.9629L12.3145 42.3828C12.8066 42.418 13.3457 42.4531 13.9316 42.4883C14.4238 42.5117 14.998 42.5293 15.6543 42.541C16.3105 42.5527 17.0078 42.5469 17.7461 42.5234C18.4844 42.5 19.2109 42.418 19.9258 42.2773C20.6523 42.125 21.2969 41.873 21.8594 41.5215C22.4219 41.1582 22.8613 40.6719 23.1777 40.0625C23.5059 39.4414 23.6406 38.6445 23.582 37.6719Z" fill="black"/>
<path d="M37.2153 36.9378C36.8529 36.9362 36.4643 36.9459 36.0496 36.9667C35.6427 36.9865 35.2289 37.0151 34.8084 37.0523C34.3869 37.0819 33.9703 37.1187 33.5585 37.1627C33.1467 37.2068 32.7587 37.2518 32.3944 37.2978C32.0456 37.3418 31.7016 37.393 31.3625 37.4515C31.0225 37.5023 30.679 37.5574 30.3321 37.6169C30.3947 38.113 30.4524 38.5703 30.5052 38.9889C30.558 39.4074 30.6083 39.8066 30.6562 40.1864C30.7032 40.5585 30.7491 40.9228 30.7941 41.2793C30.8468 41.6349 30.9005 41.9982 30.9552 42.3693C31.3786 42.2923 31.8581 42.1924 32.3938 42.0697C32.9373 41.946 33.5031 41.8117 34.0911 41.6667C34.6782 41.5139 35.2715 41.3485 35.8711 41.1705C36.4776 40.9838 37.0631 40.7878 37.6278 40.5828C38.1916 40.3699 38.7146 40.1465 39.1969 39.9124C39.687 39.6773 40.1053 39.4356 40.4519 39.1871L40.8621 42.0647L27.7938 43.713L26.1036 26.9411L39.0874 25.0908L39.2712 28.3276C38.9183 28.1517 38.4753 28.0107 37.9422 27.9047C37.4169 27.7977 36.8436 27.7165 36.2224 27.661C35.609 27.6045 34.967 27.5713 34.2964 27.5613C33.6248 27.5437 32.9674 27.5439 32.324 27.5621C31.6883 27.5793 31.089 27.6037 30.526 27.6353C29.9708 27.666 29.4907 27.699 29.0857 27.7343L30.187 36.4659L30.3265 36.4483C30.8536 36.3818 31.4029 36.3047 31.9745 36.2168C32.5462 36.129 33.1207 36.0329 33.6981 35.9285C34.2833 35.8232 34.8563 35.7155 35.4173 35.6054C35.985 35.4866 36.529 35.3668 37.0492 35.246L37.2153 36.9378Z" fill="black"/>
<path d="M57.0265 26.7715C57.0265 26.7715 57.0138 26.9272 56.9883 27.2387C56.9628 27.5501 56.9199 27.9778 56.8597 28.5215C56.8073 29.0659 56.7391 29.7071 56.6552 30.4449C56.5719 31.1749 56.4718 31.9662 56.3549 32.8189C56.2458 33.6722 56.1222 34.5596 55.984 35.4811C55.8458 36.4026 55.6882 37.3225 55.5111 38.2408C55.3424 39.1519 55.1597 40.0423 54.9631 40.912C54.7671 41.7739 54.5528 42.5715 54.3203 43.305L52.0818 43.2157C51.7403 42.5999 51.3585 41.9023 50.9363 41.1231C50.5142 40.3438 50.0715 39.5276 49.6083 38.6745C49.1536 37.8142 48.6881 36.9412 48.212 36.0556C47.7442 35.1629 47.2937 34.299 46.8604 33.464C45.8371 31.5068 44.7835 29.4883 43.6996 27.4085C43.4872 29.5232 43.2948 31.5376 43.1224 33.4518C43.0476 34.2688 42.9755 35.1016 42.906 35.9503C42.8365 36.799 42.7695 37.6166 42.7051 38.403C42.6485 39.1901 42.6002 39.923 42.5603 40.6017C42.5282 41.281 42.5083 41.8594 42.5005 42.337L39.9869 42.4486C39.9159 41.7843 39.8717 41.0321 39.8543 40.1919C39.8368 39.3518 39.8346 38.4697 39.8476 37.5458C39.8683 36.6226 39.902 35.6847 39.9487 34.7322C39.996 33.7719 40.0488 32.8395 40.1072 31.935C40.2489 29.8224 40.4271 27.646 40.6419 25.4061L45.3317 25.4257L52.4956 40.6041C52.6642 39.5989 52.8037 38.5168 52.9143 37.3579C53.0256 36.1912 53.1085 34.9869 53.1632 33.745C53.2256 32.5038 53.2582 31.2445 53.261 29.967C53.2637 28.6895 53.2414 27.4296 53.1943 26.1872L57.0265 26.7715Z" fill="black"/>
</svg>
