<svg width="55" height="45" viewBox="0 0 55 45" fill="none" xmlns="http://www.w3.org/2000/svg">
<path d="M26.0332 16.9277C26.1035 18.0762 25.9336 19.125 25.5234 20.0742C25.125 21.0117 24.5566 21.8203 23.8184 22.5C23.0801 23.1797 22.207 23.707 21.1992 24.082C20.2031 24.457 19.1484 24.6387 18.0352 24.627C18.9023 24.6035 19.7109 24.7266 20.4609 24.9961C21.2227 25.2656 21.8906 25.6289 22.4648 26.0859C23.0391 26.543 23.4961 27.0586 23.8359 27.6328C24.1875 28.207 24.3809 28.7871 24.416 29.373C24.4746 30.3691 24.3516 31.2246 24.0469 31.9395C23.7422 32.6543 23.3086 33.2578 22.7461 33.75C22.1836 34.2422 21.5215 34.6406 20.7598 34.9453C20.0098 35.2383 19.2129 35.4668 18.3691 35.6309C17.5371 35.7949 16.6934 35.9062 15.8379 35.9648C14.9824 36.0234 14.1797 36.0586 13.4297 36.0703C11.9297 36.0938 10.5703 36.1055 9.35156 36.1055C8.14453 36.1055 7.10156 36.0996 6.22266 36.0879C5.19141 36.0762 4.27148 36.0586 3.46289 36.0352C3.42773 34.9922 3.39258 33.9668 3.35742 32.959C3.3457 32.5254 3.32812 32.0801 3.30469 31.623C3.29297 31.1543 3.28125 30.6914 3.26953 30.2344C3.25781 29.7773 3.24609 29.3379 3.23438 28.916C3.22266 28.4824 3.21094 28.084 3.19922 27.7207C3.17578 27.0527 3.14648 26.3027 3.11133 25.4707C3.07617 24.6387 3.04102 23.7715 3.00586 22.8691C2.9707 21.9551 2.93555 21.0352 2.90039 20.1094C2.86523 19.1719 2.83008 18.2695 2.79492 17.4023C2.71289 15.3633 2.63086 13.2715 2.54883 11.127C3.29883 11.0215 4.23633 10.916 5.36133 10.8105C6.32227 10.7168 7.53516 10.623 9 10.5293C10.4648 10.4238 12.2168 10.3359 14.2559 10.2656C14.959 10.2422 15.7324 10.2656 16.5762 10.3359C17.4199 10.3945 18.2637 10.5176 19.1074 10.7051C19.9629 10.8809 20.7891 11.1328 21.5859 11.4609C22.3945 11.7891 23.1152 12.2051 23.748 12.709C24.3926 13.2129 24.9199 13.8164 25.3301 14.5195C25.7402 15.2109 25.9746 16.0137 26.0332 16.9277ZM21.2695 17.7539C21.2109 16.9453 21.041 16.2363 20.7598 15.627C20.4902 15.0176 20.1328 14.4961 19.6875 14.0625C19.2422 13.6172 18.7266 13.2539 18.1406 12.9727C17.5547 12.6914 16.9336 12.4746 16.2773 12.3223C15.6211 12.1582 14.9414 12.0527 14.2383 12.0059C13.5352 11.9473 12.8438 11.9297 12.1641 11.9531C11.9297 11.9648 11.5488 11.9883 11.0215 12.0234C10.4941 12.0586 9.94922 12.0996 9.38672 12.1465C8.74219 12.1934 8.03906 12.2461 7.27734 12.3047L7.76953 24.1523C8.22656 24.1172 8.74219 24.082 9.31641 24.0469C9.80859 24.0234 10.4004 23.9941 11.0918 23.959C11.7832 23.9238 12.5508 23.8945 13.3945 23.8711C14.3789 23.8359 15.3516 23.7188 16.3125 23.5195C17.2852 23.3203 18.1523 22.9922 18.9141 22.5352C19.6758 22.0781 20.2734 21.4629 20.707 20.6895C21.1523 19.916 21.3398 18.9375 21.2695 17.7539ZM19.582 29.6719C19.5234 28.8281 19.2773 28.1484 18.8438 27.6328C18.4219 27.1055 17.877 26.7012 17.209 26.4199C16.5527 26.1387 15.8086 25.9512 14.9766 25.8574C14.1562 25.7637 13.3184 25.7227 12.4629 25.7344C11.6191 25.7344 10.7988 25.7695 10.002 25.8398C9.20508 25.8984 8.50195 25.9395 7.89258 25.9629L8.31445 34.3828C8.80664 34.418 9.3457 34.4531 9.93164 34.4883C10.4238 34.5117 10.998 34.5293 11.6543 34.541C12.3105 34.5527 13.0078 34.5469 13.7461 34.5234C14.4844 34.5 15.2109 34.418 15.9258 34.2773C16.6523 34.125 17.2969 33.873 17.8594 33.5215C18.4219 33.1582 18.8613 32.6719 19.1777 32.0625C19.5059 31.4414 19.6406 30.6445 19.582 29.6719Z" fill="black"/>
<path d="M33.2153 28.9378C32.8529 28.9362 32.4643 28.9459 32.0496 28.9667C31.6427 28.9865 31.2289 29.0151 30.8084 29.0523C30.3869 29.0819 29.9703 29.1187 29.5585 29.1627C29.1467 29.2068 28.7587 29.2518 28.3944 29.2978C28.0456 29.3418 27.7016 29.393 27.3625 29.4515C27.0225 29.5023 26.679 29.5574 26.3321 29.6169C26.3947 30.113 26.4524 30.5703 26.5052 30.9889C26.558 31.4074 26.6083 31.8066 26.6562 32.1864C26.7032 32.5585 26.7491 32.9228 26.7941 33.2793C26.8468 33.6349 26.9005 33.9982 26.9552 34.3693C27.3786 34.2923 27.8581 34.1924 28.3938 34.0697C28.9373 33.946 29.5031 33.8117 30.0911 33.6667C30.6782 33.5139 31.2715 33.3485 31.8711 33.1705C32.4776 32.9838 33.0631 32.7878 33.6278 32.5828C34.1916 32.3699 34.7146 32.1465 35.1969 31.9124C35.687 31.6773 36.1053 31.4356 36.4519 31.1871L36.8621 34.0647L23.7938 35.713L22.1036 18.9411L35.0874 17.0908L35.2712 20.3276C34.9183 20.1517 34.4753 20.0107 33.9422 19.9047C33.4169 19.7977 32.8436 19.7165 32.2224 19.661C31.609 19.6045 30.967 19.5713 30.2964 19.5613C29.6248 19.5437 28.9674 19.5439 28.324 19.5621C27.6883 19.5793 27.089 19.6037 26.526 19.6353C25.9708 19.666 25.4907 19.699 25.0857 19.7343L26.187 28.4659L26.3265 28.4483C26.8536 28.3818 27.4029 28.3047 27.9745 28.2168C28.5462 28.129 29.1207 28.0329 29.6981 27.9285C30.2833 27.8232 30.8563 27.7155 31.4173 27.6054C31.985 27.4866 32.529 27.3668 33.0492 27.246L33.2153 28.9378Z" fill="black"/>
<path d="M53.0265 18.7715C53.0265 18.7715 53.0138 18.9272 52.9883 19.2387C52.9628 19.5501 52.9199 19.9778 52.8597 20.5215C52.8073 21.0659 52.7391 21.7071 52.6552 22.4449C52.5719 23.1749 52.4718 23.9662 52.3549 24.8189C52.2458 25.6722 52.1222 26.5596 51.984 27.4811C51.8458 28.4026 51.6882 29.3225 51.5111 30.2408C51.3424 31.1519 51.1597 32.0423 50.9631 32.912C50.7671 33.7739 50.5528 34.5715 50.3203 35.305L48.0818 35.2157C47.7403 34.5999 47.3585 33.9023 46.9363 33.1231C46.5142 32.3438 46.0715 31.5276 45.6083 30.6745C45.1536 29.8142 44.6881 28.9412 44.212 28.0556C43.7442 27.1629 43.2937 26.299 42.8604 25.464C41.8371 23.5068 40.7835 21.4883 39.6996 19.4085C39.4872 21.5232 39.2948 23.5376 39.1224 25.4518C39.0476 26.2688 38.9755 27.1016 38.906 27.9503C38.8365 28.799 38.7695 29.6166 38.7051 30.403C38.6485 31.1901 38.6002 31.923 38.5603 32.6017C38.5282 33.281 38.5083 33.8594 38.5005 34.337L35.9869 34.4486C35.9159 33.7843 35.8717 33.0321 35.8543 32.1919C35.8368 31.3518 35.8346 30.4697 35.8476 29.5458C35.8683 28.6226 35.902 27.6847 35.9487 26.7322C35.996 25.7719 36.0488 24.8395 36.1072 23.935C36.2489 21.8224 36.4271 19.646 36.6419 17.4061L41.3317 17.4257L48.4956 32.6041C48.6642 31.5989 48.8037 30.5168 48.9143 29.3579C49.0256 28.1912 49.1085 26.9869 49.1632 25.745C49.2256 24.5038 49.2582 23.2445 49.261 21.967C49.2637 20.6895 49.2414 19.4296 49.1943 18.1872L53.0265 18.7715Z" fill="black"/>
</svg>
